<svg viewBox="0 0 460.000000 403.000000" preserveAspectRatio="xMidYMid meet">
<g transform="translate(0.000000,403.000000) scale(0.100000,-0.100000)">
<path d="M2433 3648 c-27 -6 -51 -20 -68 -40 -25 -30 -26 -37 -21 -97 14 -142
39 -338 50 -381 l11 -45 53 0 c78 1 80 6 86 175 2 80 10 159 16 177 15 41 57
51 137 32 48 -12 60 -20 77 -48 18 -31 20 -51 18 -187 l-2 -153 27 -21 c27
-21 75 -22 94 -2 16 16 53 272 53 368 1 95 -1 103 -27 142 -16 22 -43 47 -60
55 -70 32 -344 48 -444 25z"/>
<path d="M1110 3632 c-130 -35 -197 -108 -220 -241 -10 -60 -15 -382 -6 -442
2 -14 7 -132 11 -261 4 -130 8 -254 10 -275 2 -21 7 -114 10 -208 4 -93 8
-186 10 -205 2 -19 7 -208 11 -420 6 -341 5 -392 -10 -449 -19 -73 -52 -123
-99 -149 -46 -25 -221 -25 -260 1 -83 54 -101 202 -33 266 13 13 42 25 66 28
46 6 62 29 53 76 -10 53 -61 56 -160 10 -62 -28 -125 -96 -141 -151 -32 -107
0 -202 101 -300 82 -78 139 -97 271 -89 113 6 190 34 255 93 102 91 115 178
106 679 -3 193 -8 361 -10 375 -2 14 -7 144 -11 290 -3 146 -8 274 -10 285 -2
11 -5 198 -5 415 -1 410 3 454 41 502 66 84 239 75 326 -18 46 -49 69 -54 108
-23 41 32 35 66 -21 121 -99 97 -244 130 -393 90z"/>
<path d="M701 3616 c-15 -18 -20 -801 -8 -1121 5 -115 12 -313 17 -440 11
-271 13 -610 3 -748 l-6 -98 -55 3 -56 3 -14 -37 c-18 -46 -10 -82 25 -114 22
-20 36 -24 88 -24 85 0 123 26 149 100 25 74 32 310 18 590 -11 208 -15 325
-28 800 -11 420 -12 515 -14 782 -1 252 -2 268 -21 292 -23 29 -78 36 -98 12z"/>
<path d="M476 3545 c-47 -17 -105 -62 -128 -101 -22 -38 -41 -158 -33 -207 15
-83 101 -137 222 -137 60 0 77 16 88 85 9 53 -18 90 -73 99 -56 9 -87 36 -78
69 5 23 14 28 66 38 98 19 129 81 71 140 -33 33 -71 37 -135 14z"/>
<path d="M1835 3536 c-183 -59 -345 -184 -345 -264 0 -53 289 -422 330 -422
10 0 30 14 43 32 30 37 24 62 -29 136 -92 127 -125 182 -130 214 -5 31 -2 38
24 57 47 33 114 61 148 61 39 0 77 -29 94 -72 35 -86 109 -234 124 -247 14
-11 24 -12 56 -2 68 20 73 59 25 206 -26 78 -96 242 -120 279 -34 51 -108 59
-220 22z"/>
<path d="M3275 3453 c-53 -28 -73 -53 -106 -137 -17 -44 -38 -94 -45 -111 -45
-106 -64 -157 -64 -178 0 -31 39 -66 82 -73 43 -7 54 6 128 154 59 117 111
172 164 172 38 0 80 -29 101 -71 14 -27 14 -32 -11 -81 -15 -29 -58 -99 -96
-155 -76 -112 -78 -124 -27 -168 42 -35 60 -32 105 18 148 165 264 330 264
375 0 58 -79 149 -181 211 -98 58 -248 79 -314 44z"/>
<path d="M1172 3432 c-16 -12 -25 -34 -31 -72 -13 -85 -5 -1712 9 -1855 22
-224 67 -384 132 -466 79 -100 287 -228 547 -335 57 -24 106 -45 109 -48 13
-14 -10 -35 -37 -34 -67 2 -80 -49 -26 -105 71 -73 186 -74 243 -2 28 35 29
93 3 143 -45 87 -147 152 -425 271 -65 28 -140 67 -167 86 -92 68 -153 164
-200 315 l-23 75 -4 1002 -3 1002 -26 21 c-31 24 -70 25 -101 2z"/>
<path d="M1405 3026 c-15 -22 -16 -106 -12 -808 4 -782 4 -783 27 -853 29 -92
43 -118 102 -192 65 -83 149 -136 345 -221 89 -39 189 -89 222 -111 134 -92
183 -214 130 -331 -32 -72 -88 -111 -183 -129 -113 -21 -159 7 -281 172 -93
124 -104 133 -144 112 -34 -17 -51 -43 -43 -65 11 -30 91 -146 141 -205 53
-62 117 -117 161 -140 67 -34 200 -25 296 21 74 34 158 114 191 182 24 50 28
69 28 147 0 82 -3 97 -34 158 -19 40 -56 92 -90 126 -58 59 -102 85 -413 242
-226 114 -282 189 -314 414 -4 28 -8 343 -9 700 -3 687 -6 772 -33 793 -27 20
-70 15 -87 -12z"/>
<path d="M417 2976 c-86 -32 -107 -76 -107 -227 0 -94 0 -95 33 -127 41 -40
105 -62 184 -65 71 -2 83 5 90 60 7 56 -8 78 -64 92 -54 14 -63 23 -63 68 0
29 4 33 43 44 61 18 77 35 77 84 0 58 -24 78 -98 82 -33 2 -73 -3 -95 -11z"/>
<path d="M2325 2960 c-223 -40 -439 -150 -643 -327 -94 -83 -122 -116 -122
-150 0 -25 46 -83 66 -83 8 0 54 35 102 78 192 171 254 217 347 265 157 79
386 118 570 98 438 -49 717 -261 838 -636 36 -111 49 -194 49 -310 -1 -314
-130 -588 -367 -781 -92 -75 -235 -152 -330 -179 -170 -47 -257 -98 -327 -190
-134 -177 -87 -377 114 -486 61 -33 67 -34 173 -34 135 0 210 24 285 92 179
161 115 442 -101 443 -43 0 -118 -27 -155 -55 -77 -59 -95 -131 -46 -186 38
-42 91 -45 130 -5 l27 27 -21 18 c-29 23 -40 61 -23 72 8 5 37 9 65 9 93 0
127 -53 88 -137 -68 -142 -306 -200 -408 -99 -76 77 -72 213 9 296 41 42 92
68 205 105 137 44 356 156 426 217 77 67 150 149 203 227 46 67 131 232 131
254 0 7 4 17 9 23 16 18 38 117 49 219 8 84 8 142 -1 256 -22 279 -106 460
-301 654 -140 139 -297 227 -506 282 -83 22 -121 26 -290 28 -107 2 -217 0
-245 -5z"/>
<path d="M3933 2933 c-188 -131 -373 -284 -373 -310 0 -7 14 -28 31 -47 28
-32 32 -34 57 -23 15 6 79 48 142 93 130 92 150 101 191 84 36 -15 89 -94 89
-133 0 -44 -55 -90 -203 -170 -69 -38 -128 -74 -130 -80 -2 -7 4 -34 14 -62
16 -45 21 -50 46 -49 58 3 397 160 453 210 36 33 40 41 40 86 0 86 -83 270
-158 350 -79 85 -130 98 -199 51z"/>
<path d="M2425 2770 c-362 -55 -659 -292 -765 -610 -41 -122 -56 -262 -42
-398 24 -226 103 -403 243 -539 154 -149 357 -227 619 -240 183 -9 338 17 470
80 341 161 531 556 465 971 -42 270 -172 478 -384 614 -156 101 -410 152 -606
122z m293 -156 c263 -54 463 -248 543 -526 30 -105 36 -271 15 -378 -58 -285
-207 -463 -467 -557 -68 -25 -86 -27 -234 -27 -194 -1 -279 16 -410 79 -237
116 -367 316 -390 600 -13 149 22 340 83 461 33 66 121 162 195 213 40 27 146
80 212 106 105 41 326 55 453 29z"/>
<path d="M2425 2554 c-50 -8 -175 -53 -224 -82 -119 -68 -237 -189 -289 -295
-94 -192 -94 -431 0 -626 78 -164 225 -278 438 -342 95 -28 253 -30 349 -5
236 63 449 278 496 501 76 360 -166 740 -529 830 -72 17 -189 27 -241 19z
m264 -170 c96 -24 158 -59 226 -128 163 -163 210 -447 108 -656 -38 -79 -139
-175 -227 -215 -96 -45 -177 -59 -289 -52 -236 15 -405 138 -478 348 -28 82
-34 249 -12 324 65 214 207 340 438 389 49 10 174 5 234 -10z"/>
<path d="M2331 2265 c-69 -16 -131 -55 -131 -85 0 -25 56 -70 88 -71 85 -2
380 3 429 7 73 6 127 20 141 37 19 23 -33 83 -87 102 -66 24 -352 30 -440 10z"/>
<path d="M2131 2031 c-13 -4 -33 -18 -44 -33 -18 -24 -18 -30 -7 -58 25 -60
17 -59 470 -62 432 -3 470 0 470 38 0 28 -50 85 -89 102 -30 12 -98 15 -406
17 -203 1 -381 -1 -394 -4z"/>
<path d="M2126 1778 c-21 -30 -20 -56 6 -125 30 -81 121 -171 203 -202 140
-53 283 -49 383 11 72 44 170 143 207 212 l30 56 -28 27 c-26 26 -33 28 -110
27 -112 -2 -131 -12 -163 -79 -18 -36 -37 -61 -56 -71 -75 -39 -173 -2 -196
73 -7 22 -20 47 -29 55 -26 24 -89 38 -165 38 -58 0 -69 -3 -82 -22z"/>
<path d="M490 2392 c-64 -8 -120 -35 -153 -72 -31 -34 -36 -46 -42 -114 -18
-188 40 -262 198 -254 96 4 117 21 117 88 0 53 -9 64 -60 75 -67 14 -90 32
-90 70 0 44 20 62 75 70 24 4 50 14 56 22 17 20 15 71 -2 89 -19 18 -66 31
-99 26z"/>
<path d="M4055 2155 c-55 -14 -128 -30 -163 -36 -73 -13 -105 -42 -93 -86 12
-44 29 -48 148 -35 281 31 339 1 287 -152 -28 -82 -59 -88 -282 -57 -88 13
-132 -1 -156 -48 -38 -72 -14 -96 114 -110 223 -25 343 -32 379 -20 77 25 105
76 117 209 17 190 5 266 -53 322 -32 31 -38 33 -116 35 -59 2 -110 -5 -182
-22z"/>
<path d="M414 1819 c-67 -19 -91 -77 -93 -219 -2 -112 63 -160 216 -160 106 0
115 6 117 81 1 66 -25 91 -87 83 -53 -7 -97 9 -97 35 0 25 26 39 85 48 32 4
52 13 65 31 25 32 25 53 -1 86 -19 24 -26 26 -97 25 -42 0 -91 -5 -108 -10z"/>
<path d="M3741 1524 c-26 -33 -27 -56 -3 -76 9 -8 70 -41 135 -72 147 -71 207
-122 207 -176 0 -51 -44 -90 -100 -90 -37 0 -215 73 -292 120 -44 26 -54 25
-89 -9 -37 -37 -36 -52 2 -96 54 -61 339 -212 417 -222 42 -5 52 -2 80 22 36
30 46 47 110 185 69 149 74 168 61 208 -13 41 -80 86 -184 125 -88 33 -307
107 -316 107 -4 0 -17 -12 -28 -26z"/>
<path d="M3457 1032 c-15 -15 -27 -38 -27 -50 0 -13 29 -52 73 -99 138 -148
149 -173 100 -232 -35 -40 -93 -52 -141 -27 -17 9 -61 55 -99 103 -89 113
-108 133 -131 133 -24 0 -72 -37 -72 -55 0 -21 136 -223 203 -300 66 -77 101
-105 133 -105 37 0 118 49 192 116 84 76 122 135 122 188 0 33 -11 48 -107
149 -137 144 -201 207 -211 207 -5 0 -20 -13 -35 -28z"/>
<path d="M905 769 c-531 -12 -514 -10 -541 -43 -30 -34 -30 -48 0 -82 l23 -28
414 17 c228 10 471 17 541 17 121 0 128 1 157 25 39 34 48 61 25 86 -20 22
-18 22 -619 8z"/>
<path d="M1175 588 c-77 -3 -234 -13 -350 -21 -116 -8 -251 -12 -300 -10 -94
4 -141 -6 -151 -32 -9 -22 4 -63 26 -85 18 -18 37 -19 407 -18 565 1 673 11
703 68 15 28 1 62 -32 84 -29 18 -126 23 -303 14z"/>
<path d="M834 359 c-193 -10 -351 -33 -376 -56 -25 -22 -23 -38 10 -73 45 -50
41 -50 647 -32 215 6 415 16 445 23 94 19 112 54 61 111 l-29 33 -299 1 c-164
1 -371 -2 -459 -7z"/>
</g>
</svg>
