<svg viewBox="0 0 273.000000 254.000000" preserveAspectRatio="xMidYMid meet">
<g transform="translate(0.000000,254.000000) scale(0.100000,-0.100000)">
<path d="M380 2430 c-85 -15 -163 -71 -198 -143 -37 -77 -50 -139 -48 -217 2
-62 9 -88 39 -151 33 -70 101 -149 127 -149 6 0 23 8 37 17 21 14 48 18 126
17 l99 0 38 35 39 36 6 155 c4 85 10 159 14 165 25 31 21 68 -10 117 -60 93
-160 137 -269 118z"/>
<path d="M855 2370 c-3 -5 -14 -10 -23 -10 -23 0 -92 -57 -92 -76 0 -8 -4 -14
-10 -14 -5 0 -10 -8 -10 -18 0 -10 -4 -22 -8 -27 -27 -32 -49 -333 -30 -410
16 -64 39 -108 75 -142 l34 -31 59 24 c65 26 133 31 221 14 53 -10 53 -10 86
25 34 36 37 59 5 48 -9 -4 -19 -9 -22 -13 -7 -9 -84 -30 -109 -30 -11 0 -21 5
-21 10 0 6 -14 10 -31 10 -52 0 -110 44 -138 105 -7 17 -17 37 -20 45 -12 25
-13 217 -2 225 6 3 11 15 11 26 0 37 66 119 95 119 8 0 17 5 20 10 3 6 31 10
61 10 53 0 101 -16 135 -46 22 -19 49 -7 49 22 0 27 -52 82 -96 103 -16 7 -37
17 -46 22 -24 12 -185 11 -193 -1z"/>
<path d="M1425 2366 c-69 -21 -89 -32 -140 -79 -51 -45 -95 -114 -95 -147 0
-11 -4 -22 -10 -25 -16 -10 -12 -62 6 -69 36 -14 94 -3 94 18 1 23 71 105 102
119 157 69 360 70 503 2 82 -40 115 -94 115 -192 0 -39 -4 -75 -10 -78 -5 -3
-10 -13 -10 -21 0 -12 -37 -70 -60 -94 -69 -72 -83 -91 -73 -101 16 -16 92 8
127 39 74 70 112 180 102 299 -7 91 -30 147 -80 201 -37 39 -147 102 -180 102
-6 0 -16 4 -21 9 -24 22 -310 36 -370 17z"/>
<path d="M2220 2280 c-8 -5 -26 -10 -40 -10 -33 0 -110 -41 -110 -59 0 -10 9
-12 38 -6 94 17 153 17 188 0 94 -44 160 -146 151 -232 -7 -71 -21 -123 -45
-172 -12 -25 -22 -50 -22 -57 0 -7 -4 -14 -8 -16 -8 -3 -55 -79 -50 -82 19
-11 63 -26 77 -26 45 0 132 134 146 225 17 100 3 251 -28 314 -23 48 -91 111
-118 111 -10 0 -21 5 -24 10 -8 13 -135 13 -155 0z"/>
<path d="M952 2233 c-13 -7 -31 -13 -39 -13 -8 0 -13 -7 -11 -17 2 -12 14 -19
38 -21 40 -3 81 -21 93 -40 13 -20 106 -13 118 9 12 23 -21 58 -76 82 -45 18
-87 18 -123 0z"/>
<path d="M1493 2193 c-39 -8 -46 -28 -20 -59 29 -33 66 -28 85 13 23 52 11 61
-65 46z"/>
<path d="M1597 2193 c-4 -3 -7 -16 -7 -28 0 -12 -9 -31 -20 -43 -11 -12 -20
-35 -20 -54 0 -18 -9 -44 -20 -58 -11 -14 -20 -33 -20 -42 0 -9 -20 -31 -44
-47 -24 -17 -46 -36 -48 -43 -9 -25 5 -56 25 -62 16 -4 19 -8 10 -17 -21 -21
-62 20 -63 62 0 38 13 54 63 79 30 15 35 54 7 56 -34 2 -39 5 -44 22 -3 9 -24
26 -46 36 l-40 19 -31 -29 c-25 -24 -39 -29 -81 -29 l-51 0 2 -75 c1 -41 7
-79 12 -85 5 -5 9 -18 9 -28 0 -10 9 -31 20 -47 18 -25 24 -27 65 -22 38 4 52
0 85 -23 52 -36 100 -109 100 -152 0 -36 18 -44 41 -17 39 48 160 104 255 119
31 5 45 13 55 33 8 15 29 41 48 58 38 34 35 49 -8 59 -22 5 -35 17 -51 52 -19
40 -20 49 -9 77 22 53 33 58 109 54 41 -2 72 1 74 7 2 6 -7 30 -21 55 -27 52
-76 84 -159 106 -56 14 -185 19 -197 7z m153 -93 c0 -5 -4 -10 -10 -10 -5 0
-10 5 -10 10 0 6 5 10 10 10 6 0 10 -4 10 -10z m-110 -150 c0 -5 -5 -10 -11
-10 -5 0 -7 5 -4 10 3 6 8 10 11 10 2 0 4 -4 4 -10z m20 -74 c0 -3 -4 -8 -10
-11 -5 -3 -10 -1 -10 4 0 6 5 11 10 11 6 0 10 -2 10 -4z m50 -66 c0 -5 -7 -10
-16 -10 -8 0 -12 5 -9 10 3 6 10 10 16 10 5 0 9 -4 9 -10z m80 -50 c0 -5 -7
-10 -15 -10 -8 0 -15 5 -15 10 0 6 7 10 15 10 8 0 15 -4 15 -10z"/>
<path d="M2155 2190 c-3 -5 -15 -10 -25 -10 -29 0 -40 -28 -23 -61 19 -39 46
-37 89 6 21 21 44 35 59 35 31 0 33 -16 3 -24 -13 -3 -36 -17 -52 -31 l-30
-26 22 -21 c19 -19 25 -20 61 -10 48 15 82 4 127 -39 40 -39 53 -23 28 34 -26
58 -72 107 -101 107 -15 0 -27 9 -35 25 -10 22 -17 25 -64 25 -29 0 -56 -4
-59 -10z"/>
<path d="M857 2153 c-4 -3 -7 -17 -7 -29 0 -13 -4 -26 -10 -29 -25 -15 -5 -25
53 -25 41 0 70 -5 85 -16 22 -15 24 -15 37 2 39 52 -12 104 -102 104 -27 0
-53 -3 -56 -7z"/>
<path d="M1373 2141 c-27 -22 -29 -37 -9 -57 38 -37 90 8 70 60 -8 21 -34 20
-61 -3z"/>
<path d="M1085 2089 c-30 -15 -53 -76 -51 -135 2 -63 19 -86 59 -82 l31 3 -2
105 c0 58 -1 108 -1 113 -1 9 -11 8 -36 -4z"/>
<path d="M1441 2072 l-24 -26 23 -18 c29 -23 45 -23 70 2 20 20 26 45 13 53
-30 16 -60 12 -82 -11z"/>
<path d="M836 2024 c-3 -9 -6 -27 -6 -41 0 -22 3 -24 23 -18 12 4 47 10 77 12
67 6 80 16 55 43 -24 26 -139 30 -149 4z"/>
<path d="M2123 2013 c9 -47 -12 -134 -50 -210 -20 -40 -41 -73 -45 -73 -4 0
-8 -4 -8 -10 0 -5 18 -10 40 -10 22 0 40 4 40 9 0 5 6 16 14 23 31 32 80 143
83 192 4 43 0 55 -20 79 -13 15 -32 27 -42 27 -14 0 -16 -6 -12 -27z"/>
<path d="M2253 2024 c-14 -6 -17 -51 -7 -78 4 -10 18 -16 39 -16 25 0 44 -9
71 -35 38 -36 50 -36 55 0 7 61 -45 124 -107 131 -22 2 -45 1 -51 -2z"/>
<path d="M1844 1992 c-38 -25 -37 -107 2 -124 13 -6 24 -16 24 -21 0 -5 7 -4
15 3 8 6 18 9 23 6 13 -7 42 37 42 63 0 11 5 23 10 26 18 11 11 32 -15 43 -29
13 -84 16 -101 4z"/>
<path d="M899 1953 c-42 -6 -62 -34 -49 -68 l10 -27 27 26 c17 18 36 26 59 26
22 0 37 6 43 19 16 29 -12 36 -90 24z"/>
<path d="M2236 1888 c-25 -35 -20 -61 14 -76 16 -7 39 -29 50 -48 28 -44 42
-43 63 4 24 55 22 64 -23 105 -45 43 -81 48 -104 15z"/>
<path d="M913 1873 c-39 -20 -44 -56 -11 -84 27 -24 47 -24 55 -1 4 9 17 31
30 48 13 17 23 36 23 42 0 17 -59 14 -97 -5z"/>
<path d="M1007 1823 c-27 -31 -30 -66 -8 -80 17 -10 30 -10 68 -1 27 7 50 15
53 19 3 3 13 9 24 12 11 5 16 13 12 23 -3 9 -6 22 -6 30 0 22 -122 19 -143 -3z"/>
<path d="M620 1795 c-10 -12 -10 -18 0 -30 19 -23 30 -18 30 15 0 33 -11 38
-30 15z"/>
<path d="M2181 1763 c-45 -53 -41 -69 19 -77 27 -4 52 -11 55 -16 10 -16 45
-12 52 6 3 8 -1 27 -8 42 -15 29 -66 82 -79 82 -4 0 -22 -16 -39 -37z"/>
<path d="M361 1755 c-189 -68 -243 -394 -92 -552 11 -12 42 -32 68 -43 86 -39
224 -16 265 44 6 9 1 56 -7 65 -2 2 -20 -4 -39 -13 -89 -42 -212 7 -253 103
-19 44 -19 171 0 208 35 66 90 94 186 95 71 1 82 -2 120 -28 22 -16 41 -35 41
-41 0 -20 -14 -15 -50 17 -31 28 -40 30 -107 30 -71 0 -105 -11 -138 -45 -68
-71 -56 -238 21 -292 50 -35 99 -48 129 -35 14 7 34 12 44 12 28 0 50 32 57
83 8 55 -4 60 -58 27 -48 -29 -101 -26 -127 6 -50 64 -1 175 77 174 20 0 89
-23 98 -33 12 -11 69 -8 82 5 18 18 14 57 -10 107 -25 53 -46 72 -105 101 -49
23 -146 26 -202 5z"/>
<path d="M1213 1704 c-35 -27 -55 -64 -72 -129 -36 -141 -16 -223 66 -262 31
-14 35 -14 77 11 103 60 162 184 135 283 -5 18 -31 51 -60 77 -61 55 -97 59
-146 20z"/>
<path d="M905 1646 c-60 -17 -126 -52 -163 -87 -39 -37 -92 -141 -92 -180 0
-15 -4 -31 -10 -34 -30 -19 9 -212 55 -270 13 -16 19 -18 35 -7 11 6 27 12 35
12 24 0 27 23 11 71 -29 83 -15 190 32 242 42 47 89 67 160 67 37 0 73 -5 79
-11 24 -24 40 -2 46 66 4 37 11 73 16 79 16 19 -4 39 -51 53 -50 15 -97 15
-153 -1z"/>
<path d="M1750 1650 c-14 -5 -45 -14 -70 -21 -25 -7 -63 -24 -85 -37 -42 -25
-155 -137 -155 -153 0 -5 -16 -31 -35 -58 -19 -26 -35 -53 -35 -58 0 -6 -7
-17 -16 -24 -9 -7 -20 -22 -25 -34 -5 -11 -27 -48 -48 -82 -90 -143 -124 -224
-129 -306 -6 -89 6 -112 66 -127 45 -11 66 -8 129 23 20 9 29 5 62 -21 71 -57
91 -38 91 87 0 65 3 81 15 81 11 0 15 -11 15 -40 0 -35 4 -42 28 -51 135 -54
398 -79 551 -51 92 16 163 33 183 43 10 5 27 9 37 9 11 0 23 5 26 10 8 13 55
13 55 0 0 -5 -11 -10 -25 -10 -14 0 -25 -4 -25 -10 0 -5 -13 -10 -28 -10 -15
0 -32 -4 -38 -10 -23 -23 -223 -53 -354 -54 -131 0 -351 31 -372 52 -22 22
-38 13 -38 -22 0 -39 -33 -86 -61 -86 -20 0 -68 26 -80 44 -4 5 -22 5 -40 1
-19 -4 -62 -8 -97 -9 -34 -2 -68 -8 -74 -14 -6 -6 -11 -44 -11 -87 l0 -76 42
-39 c30 -28 52 -40 72 -40 36 0 38 -18 4 -50 -19 -18 -25 -34 -25 -66 0 -41 1
-42 44 -53 25 -6 54 -11 66 -11 28 0 86 -30 146 -76 54 -41 134 -76 151 -66 6
4 13 57 15 122 3 63 8 122 12 132 5 12 1 18 -16 23 -38 12 -138 64 -159 84
-15 14 -17 21 -9 26 7 4 15 4 19 -1 11 -16 90 -64 105 -64 8 0 18 -4 21 -10 3
-5 19 -10 35 -10 16 0 31 -4 35 -9 3 -5 31 -12 63 -16 31 -3 67 -11 78 -17 29
-14 270 -4 359 16 39 8 84 18 100 21 36 8 53 15 120 46 l50 24 0 155 c0 85 4
166 9 179 9 25 4 26 -61 6 -39 -12 -25 11 18 30 44 20 59 40 59 79 0 14 4 27
9 30 4 3 11 27 15 53 3 27 9 66 12 88 11 69 -15 233 -49 303 -43 89 -148 167
-277 205 -43 13 -445 19 -480 7z m291 -146 c25 -8 57 -26 69 -39 26 -27 50
-87 50 -123 0 -67 -69 -152 -125 -152 -17 0 -36 -5 -42 -11 -14 -14 -120 7
-140 27 -8 7 -22 19 -31 26 -45 34 -54 122 -21 193 21 44 28 49 109 83 35 14
77 13 131 -4z m-601 -212 c0 -5 32 -25 71 -45 64 -33 79 -37 150 -37 46 0 79
-4 79 -10 0 -5 -10 -10 -22 -10 -19 0 -84 -41 -100 -64 -3 -5 -34 -9 -68 -9
-50 1 -66 5 -86 24 -13 12 -24 30 -24 39 0 9 -5 21 -12 28 -9 9 -9 15 0 24 15
15 16 48 2 48 -5 0 -10 5 -10 10 0 6 5 10 10 10 6 0 10 -4 10 -8z m788 -169
c-4 -22 -22 -20 -26 1 -2 10 3 16 13 16 10 0 15 -7 13 -17z m-408 -38 c0 -8
-4 -15 -9 -15 -13 0 -22 16 -14 24 11 11 23 6 23 -9z m306 -22 c-11 -11 -19 6
-11 24 8 17 8 17 12 0 3 -10 2 -21 -1 -24z m-216 -19 c0 -14 -12 -19 -23 -8
-9 9 4 35 14 28 5 -3 9 -12 9 -20z m370 -19 c0 -8 -7 -15 -15 -15 -8 0 -15 7
-15 15 0 8 7 15 15 15 8 0 15 -7 15 -15z m-500 -30 c0 -8 -7 -15 -15 -15 -8 0
-15 7 -15 15 0 8 7 15 15 15 8 0 15 -7 15 -15z m420 -20 c0 -8 -6 -15 -14 -15
-17 0 -28 14 -19 24 12 12 33 6 33 -9z m-315 -35 c0 -7 -6 -15 -12 -17 -8 -3
-13 4 -13 17 0 13 5 20 13 18 6 -3 12 -11 12 -18z m475 0 c0 -11 -7 -20 -15
-20 -15 0 -21 21 -8 33 12 13 23 7 23 -13z m-630 -60 c0 -11 -4 -20 -9 -20
-11 0 -22 26 -14 34 12 12 23 5 23 -14z m528 -22 c-6 -18 -25 -20 -31 -3 -5
10 0 15 14 15 12 0 19 -5 17 -12z m-408 -23 c0 -8 -7 -15 -15 -15 -8 0 -15 7
-15 15 0 8 7 15 15 15 8 0 15 -7 15 -15z"/>
<path d="M1980 1490 c0 -5 -6 -10 -13 -10 -18 0 -77 -63 -77 -82 0 -9 -4 -20
-10 -23 -17 -10 -12 -141 5 -155 20 -17 27 -8 30 37 6 87 37 145 101 186 41
26 41 30 9 45 -32 15 -45 15 -45 2z"/>
<path d="M1852 1452 c-18 -16 -32 -36 -32 -45 0 -9 -4 -19 -10 -22 -5 -3 -10
-21 -10 -40 0 -19 5 -37 10 -40 6 -3 10 -15 10 -26 0 -10 5 -19 10 -19 6 0 10
26 10 59 0 33 5 63 10 66 6 3 10 13 10 21 0 8 11 25 25 38 48 45 16 52 -33 8z"/>
<path d="M2013 1403 c-40 -40 -50 -58 -62 -109 -11 -51 -11 -65 0 -83 15 -23
25 -26 34 -11 3 6 18 10 33 10 53 0 113 78 111 143 -1 39 -29 91 -52 95 -9 2
-37 -18 -64 -45z"/>
<path d="M1467 1233 c-15 -14 -6 -56 16 -74 28 -23 104 -25 135 -3 31 22 27
34 -10 34 -37 0 -98 20 -120 38 -8 6 -18 9 -21 5z"/>
<path d="M720 1630 c0 -5 5 -10 10 -10 6 0 10 5 10 10 0 6 -4 10 -10 10 -5 0
-10 -4 -10 -10z"/>
<path d="M450 1507 c-28 -30 -27 -81 3 -94 25 -12 107 3 107 19 0 4 16 8 35 8
19 0 35 3 35 8 0 4 3 17 6 30 6 19 3 22 -25 22 -18 0 -42 6 -54 14 -34 21 -84
18 -107 -7z"/>
<path d="M930 1432 c-14 -2 -29 -8 -34 -13 -6 -5 -16 -9 -24 -9 -19 0 -62 -50
-62 -72 0 -9 -4 -20 -10 -23 -25 -15 1 -205 28 -205 10 0 12 12 7 55 -9 72 10
136 55 187 29 33 43 41 80 45 25 3 62 1 83 -5 46 -13 49 2 5 22 -36 17 -89 25
-128 18z"/>
<path d="M928 1352 c-47 -29 -73 -111 -61 -192 8 -53 10 -55 38 -55 29 0 30 2
32 48 3 71 33 104 100 112 22 2 72 48 73 67 0 3 -14 14 -32 22 -40 20 -115 19
-150 -2z"/>
<path d="M1119 1283 c-31 -39 -39 -66 -39 -132 0 -120 49 -186 81 -108 17 40
87 164 111 196 10 13 18 27 18 30 0 4 -26 7 -57 7 -35 0 -58 4 -61 12 -6 18
-37 15 -53 -5z"/>
<path d="M992 1222 c-30 -26 -32 -116 -3 -132 42 -22 48 -14 47 67 -1 82 -9
95 -44 65z"/>
<path d="M795 1051 c-84 -22 -128 -58 -152 -126 -30 -81 -41 -446 -18 -580 9
-51 45 -99 87 -115 18 -6 42 -16 54 -22 11 -5 90 -10 175 -11 128 -1 161 2
194 17 69 31 123 96 80 96 -9 0 -24 -8 -35 -18 -35 -33 -114 -54 -199 -53 -70
0 -86 4 -123 27 -45 29 -70 55 -87 92 -6 12 -17 34 -23 49 -9 17 -13 74 -12
172 1 118 4 153 19 181 21 42 64 90 81 90 7 0 14 5 16 11 2 6 35 14 73 16 54
4 80 1 113 -13 23 -10 42 -22 42 -26 0 -22 17 -3 28 32 22 72 16 102 -27 133
-22 15 -45 27 -53 27 -8 0 -19 5 -24 10 -14 14 -169 22 -209 11z"/>
<path d="M371 1015 c-18 -6 -48 -23 -65 -38 -32 -25 -86 -119 -86 -150 0 -9
-4 -18 -9 -21 -10 -6 -24 -136 -24 -226 -1 -73 10 -165 23 -195 4 -11 11 -27
14 -35 32 -83 90 -115 202 -113 121 2 196 45 165 95 -12 20 -17 453 -5 526 5
32 1 43 -30 83 -21 28 -53 55 -80 68 -51 23 -57 24 -105 6z"/>
<path d="M903 853 c-24 -2 -43 -8 -43 -14 0 -5 -5 -9 -11 -9 -17 0 -49 -40
-71 -88 -16 -35 -19 -64 -18 -155 1 -62 2 -124 3 -138 4 -49 49 -120 97 -152
43 -30 50 -31 135 -31 74 1 97 5 130 23 57 33 74 50 101 103 23 46 23 47 4 53
-11 4 -20 11 -20 16 0 19 -29 8 -58 -21 -71 -70 -179 -13 -181 95 -1 31 6 49
29 77 26 31 37 37 77 40 44 3 46 4 58 45 11 36 10 45 -6 69 -24 38 -96 84
-130 84 -15 0 -33 1 -41 3 -7 2 -32 2 -55 0z m107 -158 c0 -8 -7 -15 -15 -15
-8 0 -15 7 -15 15 0 8 7 15 15 15 8 0 15 -7 15 -15z m90 -5 c0 -11 -4 -20 -10
-20 -5 0 -10 9 -10 20 0 11 5 20 10 20 6 0 10 -9 10 -20z m-196 -105 c-4 -8
-10 -15 -15 -15 -5 0 -9 7 -9 15 0 8 7 15 15 15 9 0 12 -6 9 -15z m-4 -115 c0
-11 -7 -20 -15 -20 -15 0 -21 21 -8 33 12 13 23 7 23 -13z m90 -96 c0 -8 -7
-14 -15 -14 -17 0 -18 2 -9 24 7 18 24 12 24 -10z m130 -14 c0 -11 -4 -20 -10
-20 -5 0 -10 9 -10 20 0 11 5 20 10 20 6 0 10 -9 10 -20z"/>
<path d="M1033 602 c-34 -22 -37 -106 -4 -136 31 -28 95 -24 116 7 14 22 13
27 -4 63 -11 21 -22 47 -25 57 -6 18 -59 24 -83 9z"/>
<path d="M2455 471 c-80 -43 -213 -76 -362 -87 l-72 -6 -3 -130 c-2 -71 1
-132 5 -135 16 -10 220 -3 255 8 98 32 152 67 185 121 24 38 29 59 33 140 4
53 2 98 -2 100 -5 3 -22 -2 -39 -11z"/>
<path d="M1707 293 c-9 -161 -10 -157 43 -166 25 -4 87 -10 137 -14 l93 -5 10
26 c5 15 10 76 10 136 l0 108 -62 6 c-35 3 -99 9 -144 12 l-81 6 -6 -109z"/>
</g>
</svg>
