<svg xmlns="http://www.w3.org/2000/svg" viewBox="0 0 48 48"><path fill="currentColor" d="M24 15.2c-4.9 0-8.9 4-8.9 8.9s4 8.9 8.9 8.9 8.9-4 8.9-8.9-4-8.9-8.9-8.9zm0 14.1c-2.9 0-5.2-2.3-5.2-5.2 0-2.9 2.3-5.2 5.2-5.2s5.2 2.3 5.2 5.2c0 2.9-2.3 5.2-5.2 5.2zM24 13.5c1 0 1.8-.8 1.8-1.8V7.9c0-1-.8-1.8-1.8-1.8s-1.8.8-1.8 1.8v3.7c0 1.1.8 1.9 1.8 1.9zM24 34.7c-1 0-1.8.8-1.8 1.8v3.7c0 1 .8 1.8 1.8 1.8s1.8-.8 1.8-1.8v-3.7c0-1-.8-1.8-1.8-1.8zM34.4 16.4l2.6-2.7c.7-.7.7-1.9 0-2.6-.7-.7-1.9-.7-2.6 0l-2.6 2.6c-.7.7-.7 1.9 0 2.6.7.8 1.8.8 2.6.1zM13.6 31.8L11 34.5c-.7.7-.7 1.9 0 2.6s1.9.7 2.6 0l2.6-2.6c.7-.7.7-1.9 0-2.6-.7-.8-1.8-.8-2.6-.1zM13.4 24.1c0-1-.8-1.8-1.8-1.8H7.8c-1 0-1.8.8-1.8 1.8s.8 1.8 1.8 1.8h3.7c1.1 0 1.9-.8 1.9-1.8zM40.2 22.3h-3.7c-1 0-1.8.8-1.8 1.8s.8 1.8 1.8 1.8h3.7c1 0 1.8-.8 1.8-1.8s-.8-1.8-1.8-1.8zM13.6 16.4c.7.7 1.9.7 2.6 0 .7-.7.7-1.9 0-2.6l-2.6-2.7c-.7-.7-1.8-.7-2.6 0-.7.8-.7 1.9 0 2.6l2.6 2.7zM34.4 31.8c-.7-.7-1.9-.7-2.6 0-.7.7-.7 1.9 0 2.6l2.6 2.6c.7.7 1.9.7 2.6 0 .7-.7.7-1.9 0-2.6l-2.6-2.6z"></path></svg>